<?xml version="1.0" standalone="no"?>
<!DOCTYPE svg PUBLIC "-//W3C//DTD SVG 20010904//EN"
 "http://www.w3.org/TR/2001/REC-SVG-20010904/DTD/svg10.dtd">
<svg version="1.0" xmlns="http://www.w3.org/2000/svg"
 width="1040.000000pt" height="1040.000000pt" viewBox="0 0 1040.000000 1040.000000"
 preserveAspectRatio="xMidYMid meet">
<metadata>
Created by potrace 1.14, written by Peter Selinger 2001-2017
</metadata>
<g transform="translate(0.000000,1040.000000) scale(0.100000,-0.100000)"
fill="#000000" stroke="none">
<path d="M9149 9037 c-2 -3 -31 -7 -64 -10 -133 -13 -265 -47 -442 -113 -51
-20 -95 -35 -99 -34 -4 1 -10 -2 -13 -7 -3 -4 -59 -34 -123 -66 -301 -150
-665 -397 -938 -636 -110 -97 -159 -143 -278 -262 -118 -116 -176 -178 -287
-302 -11 -13 -40 -47 -65 -76 -25 -30 -49 -59 -55 -65 -5 -6 -28 -34 -50 -61
-21 -28 -42 -52 -45 -55 -6 -5 -162 -215 -222 -299 -21 -29 -38 -56 -38 -62 0
-5 -4 -9 -10 -9 -5 0 -10 -6 -10 -13 0 -8 -9 -22 -20 -32 -11 -10 -20 -22 -20
-28 0 -5 -10 -23 -22 -40 -13 -17 -27 -40 -33 -49 -5 -10 -29 -49 -52 -88 -24
-38 -43 -73 -43 -78 0 -4 -8 -17 -17 -28 -26 -28 -226 -436 -238 -484 0 -3
-11 -32 -24 -65 -41 -106 -89 -248 -111 -330 -12 -44 -24 -87 -27 -95 -3 -8
-7 -24 -8 -36 -2 -11 -8 -38 -14 -60 -5 -21 -13 -59 -16 -84 -4 -24 -9 -48
-11 -51 -4 -6 -12 -56 -19 -119 -2 -14 -3 -28 -4 -32 -1 -4 -18 -17 -38 -28
-21 -11 -45 -24 -53 -30 -8 -5 -71 -44 -140 -86 -69 -42 -151 -94 -182 -116
-32 -21 -59 -35 -59 -31 -1 4 -3 17 -4 28 -2 11 -5 40 -9 65 -3 25 -10 60 -15
78 -5 17 -8 32 -6 32 2 0 -7 32 -20 71 -67 195 -171 344 -339 484 -63 52 -154
115 -166 115 -6 0 -10 5 -10 11 0 5 -4 8 -9 4 -5 -3 -12 -1 -16 5 -12 20 -315
158 -385 176 -8 2 -53 15 -99 29 -46 14 -98 28 -114 31 -17 2 -33 6 -36 8 -3
2 -22 7 -41 10 -19 3 -46 8 -60 11 -14 3 -49 7 -78 11 -29 3 -63 7 -75 10 -45
9 -196 17 -337 17 -250 0 -456 -21 -707 -74 -54 -11 -109 -23 -123 -25 -35 -7
-196 -50 -320 -86 -58 -16 -114 -32 -125 -35 -11 -3 -26 -10 -33 -16 -7 -5
-15 -7 -18 -4 -5 5 285 229 369 285 20 13 37 29 37 33 0 5 6 9 14 9 8 0 16 4
18 8 2 4 53 43 113 87 156 113 197 143 221 163 11 10 34 26 50 36 15 11 33 23
39 28 5 5 46 34 90 65 321 227 387 273 396 273 5 0 9 4 9 8 0 4 15 16 33 27
17 10 34 21 37 25 3 3 142 97 310 208 168 111 314 208 325 216 80 54 456 286
464 286 5 0 11 3 13 8 3 8 359 220 479 286 25 13 66 36 90 51 24 14 56 31 72
38 15 6 27 15 27 19 0 4 9 8 19 8 11 0 21 3 23 8 4 10 122 71 398 208 129 65
244 122 255 127 36 19 70 35 110 52 22 9 47 20 56 25 9 5 61 27 115 50 54 23
113 47 129 55 17 7 62 25 100 40 39 14 79 31 90 36 11 5 34 13 50 18 86 27
222 84 251 106 21 16 37 40 44 65 13 50 2 75 -38 83 -30 6 -127 2 -172 -8 -14
-3 -41 -8 -60 -12 -19 -4 -37 -8 -40 -8 -58 -15 -154 -43 -180 -52 -8 -4 -19
-7 -25 -8 -60 -14 -468 -184 -473 -197 -2 -4 -10 -8 -18 -8 -9 0 -35 -11 -60
-25 -24 -13 -44 -21 -44 -17 0 4 -4 2 -8 -3 -4 -6 -56 -34 -117 -64 -60 -30
-118 -61 -127 -69 -10 -8 -18 -12 -18 -9 0 3 -43 -18 -94 -48 -52 -30 -99 -55
-104 -55 -5 0 -15 -7 -22 -15 -6 -8 -15 -14 -18 -12 -4 1 -62 -31 -129 -71
-67 -40 -126 -72 -132 -72 -6 0 -11 -4 -11 -10 0 -5 -7 -10 -15 -10 -8 0 -15
-4 -15 -10 0 -5 -4 -10 -9 -10 -10 0 -133 -70 -141 -81 -3 -3 -10 -8 -15 -10
-66 -25 -1278 -813 -1297 -843 -4 -6 -8 -6 -8 -1 0 7 -3 7 -8 0 -11 -15 -70
-55 -82 -55 -5 0 -10 -4 -10 -8 0 -4 -15 -16 -32 -27 -18 -10 -35 -21 -38 -24
-3 -3 -45 -33 -95 -66 -49 -33 -106 -72 -125 -86 -19 -14 -104 -75 -189 -135
-84 -60 -170 -121 -190 -136 -20 -15 -42 -31 -50 -35 -8 -3 -22 -13 -30 -21
-9 -7 -43 -33 -76 -58 -33 -24 -67 -50 -75 -57 -8 -7 -28 -21 -43 -31 -16 -9
-36 -24 -45 -32 -9 -9 -55 -45 -102 -80 -95 -73 -117 -90 -239 -187 -96 -77
-97 -78 -236 -198 -156 -134 -175 -151 -216 -193 -74 -76 -60 -107 45 -101 33
2 71 6 83 9 57 13 233 62 382 107 91 27 174 51 185 54 12 2 30 6 41 9 110 25
147 33 215 42 25 3 54 8 65 10 146 28 521 22 695 -11 19 -4 42 -8 50 -9 8 -1
31 -6 50 -10 19 -4 44 -9 55 -11 11 -2 20 -4 20 -5 0 -1 8 -3 17 -5 10 -2 48
-13 85 -24 221 -70 420 -190 538 -326 62 -71 125 -161 125 -179 0 -8 4 -16 9
-18 9 -3 61 -118 85 -188 46 -136 61 -235 60 -395 0 -142 -7 -203 -35 -310
-37 -139 -46 -154 -178 -286 -228 -229 -401 -435 -589 -702 -34 -48 -62 -90
-62 -93 0 -3 -11 -20 -25 -38 -14 -18 -25 -37 -25 -41 0 -5 -6 -16 -14 -24
-39 -44 -204 -380 -221 -451 -1 -3 -7 -18 -14 -34 -6 -16 -13 -36 -14 -45 -1
-9 -5 -20 -9 -26 -3 -5 -9 -26 -14 -45 -11 -50 -11 -50 -14 -52 -1 -2 -3 -10
-5 -18 -1 -8 -8 -42 -16 -75 -7 -33 -14 -69 -15 -80 -29 -227 -22 -389 22
-523 101 -299 356 -504 686 -549 66 -9 335 -10 403 -1 91 12 217 34 295 53 14
3 34 8 46 10 12 3 79 24 150 47 71 23 131 42 134 43 3 1 16 6 30 12 14 6 50
21 80 33 184 73 406 186 633 324 65 39 126 76 135 81 30 18 167 109 172 115 3
3 32 23 65 45 59 40 335 243 345 254 3 3 34 28 70 56 36 27 67 52 70 55 3 3
25 21 50 40 25 19 47 37 50 40 3 3 32 27 65 55 33 27 65 54 71 60 6 5 33 29
60 52 76 64 193 168 263 233 21 19 89 82 151 140 209 193 720 710 855 864 6 6
33 36 60 67 46 50 77 85 206 234 24 28 62 73 84 99 22 27 45 54 50 60 17 18
188 227 215 263 69 91 176 229 185 239 5 6 17 21 25 33 36 53 120 167 134 183
8 9 19 25 25 36 6 11 17 27 23 34 7 8 18 21 23 31 6 9 50 74 98 144 114 166
257 384 265 403 3 8 8 17 12 20 3 3 40 61 80 130 84 140 89 150 144 252 21 40
41 75 45 78 12 9 271 538 269 550 -1 3 9 24 20 47 67 130 204 525 237 683 2 8
8 35 13 60 11 46 18 92 32 195 14 103 4 340 -20 435 -11 47 -22 90 -24 95 -13
41 -76 178 -85 185 -3 3 -23 31 -44 62 -50 74 -166 184 -261 247 -42 27 -76
48 -76 45 0 -3 -13 4 -29 15 -16 12 -35 21 -43 21 -8 0 -18 4 -24 9 -14 14
-149 57 -239 76 -72 16 -384 32 -396 22z m186 -390 c205 -50 325 -127 424
-271 32 -46 80 -145 86 -177 2 -11 7 -24 10 -29 6 -10 10 -25 21 -84 2 -16 7
-32 9 -36 14 -23 22 -311 11 -420 -8 -82 -26 -187 -52 -295 -3 -11 -7 -31 -10
-44 -3 -13 -9 -31 -13 -40 -5 -9 -10 -20 -10 -26 -4 -24 -15 -64 -34 -125 -12
-36 -22 -67 -22 -70 -1 -3 -7 -18 -13 -33 -7 -16 -12 -31 -12 -35 0 -4 -16
-47 -36 -97 -38 -94 -48 -119 -83 -197 -12 -27 -30 -69 -42 -95 -26 -60 -185
-378 -227 -454 -29 -54 -125 -224 -147 -261 -5 -9 -21 -36 -34 -60 -13 -24
-36 -62 -52 -86 -16 -24 -29 -45 -29 -48 0 -3 -15 -29 -33 -57 -19 -29 -65
-101 -103 -162 -38 -60 -74 -116 -81 -123 -7 -7 -13 -17 -13 -22 0 -5 -6 -15
-13 -22 -7 -7 -28 -37 -46 -66 -19 -30 -39 -59 -45 -65 -7 -7 -25 -33 -41 -59
-17 -27 -33 -48 -37 -48 -5 0 -8 -5 -8 -10 0 -6 -5 -16 -10 -23 -9 -11 -94
-125 -138 -185 -18 -25 -64 -86 -85 -112 -7 -9 -25 -33 -42 -55 -16 -22 -35
-47 -42 -55 -7 -8 -40 -51 -75 -95 -35 -44 -71 -89 -81 -100 -10 -11 -35 -41
-55 -67 -20 -27 -40 -48 -44 -48 -4 0 -8 -7 -8 -15 0 -8 -3 -15 -7 -15 -5 0
-29 -26 -54 -58 -26 -31 -58 -69 -70 -83 -13 -14 -43 -48 -67 -75 -45 -52 -53
-61 -197 -219 -201 -221 -511 -535 -725 -735 -155 -146 -176 -165 -221 -204
-19 -16 -52 -45 -75 -65 -79 -71 -107 -93 -257 -214 -159 -126 -175 -139 -267
-206 -30 -22 -66 -50 -80 -61 -14 -11 -31 -20 -37 -20 -7 0 -13 -4 -13 -8 0
-4 -15 -16 -32 -27 -18 -10 -35 -21 -38 -25 -7 -9 -153 -101 -285 -180 -206
-123 -580 -300 -690 -326 -16 -4 -34 -9 -40 -13 -5 -3 -14 -6 -20 -8 -5 -1
-36 -9 -67 -17 -32 -9 -70 -18 -85 -21 -16 -3 -39 -7 -53 -10 -169 -35 -438
-38 -547 -6 -2 1 -5 1 -8 1 -15 2 -97 35 -154 63 -118 58 -207 169 -226 282
-4 22 -7 46 -6 53 3 31 3 39 1 62 -1 14 1 41 4 60 4 19 9 51 12 70 10 58 53
180 97 270 40 81 161 284 189 315 7 8 29 35 48 61 98 130 185 228 345 389 134
135 282 275 290 275 3 0 20 15 39 33 19 17 53 48 76 67 23 19 50 42 61 52 23
19 85 69 140 113 21 17 54 43 74 59 121 97 478 360 609 448 10 7 35 25 55 39
58 40 64 40 107 -3 41 -42 136 -99 194 -117 119 -36 271 -39 284 -6 12 32 -11
54 -65 61 -48 6 -115 42 -157 83 -38 38 -92 126 -92 150 0 6 24 25 53 44 100
66 167 107 174 107 3 0 14 6 22 14 53 46 595 338 753 406 29 12 71 31 93 40
133 60 357 137 480 166 39 9 79 18 90 20 11 3 38 7 60 10 22 3 65 8 95 12 93
13 221 7 297 -13 40 -10 75 -16 79 -13 10 11 -18 121 -48 185 -28 60 -105 143
-153 164 -11 5 -27 13 -35 18 -34 20 -87 39 -155 54 -50 12 -73 17 -110 24
-51 9 -476 10 -532 0 -24 -4 -62 -10 -85 -13 -24 -3 -63 -9 -88 -14 -24 -5
-48 -6 -52 -4 -5 3 -8 0 -8 -6 0 -6 -4 -9 -9 -6 -18 12 -490 -122 -576 -164
-11 -5 -58 -25 -105 -44 -47 -19 -125 -53 -173 -75 -49 -23 -90 -41 -92 -41
-3 0 3 67 9 105 2 11 9 49 15 85 6 36 16 85 21 110 6 25 12 54 14 65 2 11 9
38 14 60 6 22 13 51 16 65 15 81 115 386 148 452 10 21 18 42 18 47 0 21 143
320 204 426 72 124 79 136 144 233 23 35 42 67 42 72 0 4 3 10 8 12 4 2 18 19
32 39 47 68 176 230 244 309 62 70 294 299 366 361 86 73 306 239 319 239 5 0
11 3 13 8 3 6 79 58 129 87 10 6 44 25 76 44 141 84 449 229 543 256 14 4 30
11 35 15 9 6 96 36 135 46 8 2 60 15 115 29 55 15 111 28 125 31 56 10 77 13
130 20 30 3 57 8 59 10 5 5 293 -3 316 -9z"/>
<path d="M3005 8530 c-90 -22 -184 -97 -296 -239 -34 -42 -68 -85 -78 -96 -19
-24 -131 -179 -146 -203 -16 -27 -49 -76 -58 -87 -22 -27 -213 -329 -320 -505
-79 -130 -67 -110 -216 -365 -61 -104 -115 -195 -121 -202 -5 -7 -10 -15 -10
-19 0 -3 -22 -44 -50 -91 -27 -47 -50 -89 -50 -93 0 -5 -3 -10 -8 -12 -6 -3
-60 -99 -87 -155 -5 -13 -13 -23 -17 -23 -5 0 -8 -4 -8 -10 0 -13 -113 -214
-122 -218 -5 -2 -8 -12 -8 -22 0 -10 -4 -21 -9 -25 -6 -3 -16 -18 -24 -33 -7
-15 -29 -54 -47 -87 -18 -33 -48 -89 -68 -125 -19 -36 -47 -87 -62 -115 -15
-27 -42 -77 -60 -110 -18 -33 -45 -82 -60 -110 -15 -27 -49 -90 -75 -140 -26
-49 -64 -121 -85 -160 -20 -38 -61 -117 -91 -175 -30 -58 -57 -106 -61 -108
-5 -2 -8 -12 -8 -22 0 -10 -3 -20 -7 -22 -5 -1 -35 -57 -68 -123 -33 -66 -63
-121 -67 -123 -5 -2 -8 -8 -8 -13 0 -5 -66 -143 -147 -306 -80 -164 -146 -304
-146 -310 0 -7 -4 -13 -9 -13 -4 0 -8 -4 -8 -10 0 -9 -14 -42 -80 -185 -27
-60 -140 -341 -145 -360 -1 -5 -5 -17 -8 -25 -8 -22 -41 -123 -43 -135 -1 -5
-7 -29 -12 -53 -15 -63 -10 -161 8 -172 19 -11 45 11 68 59 9 20 17 38 18 41
6 28 252 528 311 630 11 19 48 87 83 150 35 63 113 201 173 305 61 105 115
200 121 212 6 13 14 23 17 23 3 0 16 23 29 50 13 28 27 50 32 50 4 0 8 6 8 13
0 7 7 22 15 32 18 24 119 189 137 225 7 14 15 27 18 30 7 6 84 130 93 150 4 8
29 49 57 90 27 41 55 84 60 95 6 11 19 34 30 50 11 17 23 38 26 48 4 9 10 17
14 17 4 0 13 14 20 30 7 17 16 30 21 30 5 0 9 5 9 10 0 9 171 281 221 352 10
15 19 32 19 38 0 5 5 10 10 10 6 0 10 4 10 10 0 5 36 63 80 129 44 67 80 125
80 130 0 5 3 11 8 13 7 3 72 95 72 102 0 3 285 436 297 451 5 6 26 38 48 72
22 35 43 63 48 63 4 0 7 4 7 10 0 8 61 103 93 145 37 50 157 229 157 235 0 5
3 10 8 12 4 2 25 30 47 63 45 67 46 69 78 110 12 17 42 59 67 95 24 36 48 70
52 75 5 6 39 53 76 105 37 52 72 101 79 108 7 7 13 16 13 20 0 4 10 19 23 34
12 14 40 52 62 83 22 31 47 65 56 75 8 10 24 31 35 45 23 32 71 96 82 110 30
38 100 145 110 168 33 76 6 144 -68 176 -55 24 -187 35 -245 21z"/>
</g>
</svg>
